solid Obstacle_03
   facet normal 0.000000e+00 0.000000e+00 -1.000000e+00
      outer loop
         vertex 4.000008e-03 3.000000e-03 -1.490115e-09
         vertex 4.000008e-03 6.030000e-01 -1.490115e-09
         vertex 8.040000e-01 3.000000e-03 -1.490115e-09
      endloop
   endfacet
   facet normal 0.000000e+00 0.000000e+00 -1.000000e+00
      outer loop
         vertex 8.040000e-01 3.000000e-03 -1.490115e-09
         vertex 4.000008e-03 6.030000e-01 -1.490115e-09
         vertex 8.040000e-01 6.030000e-01 -1.490115e-09
      endloop
   endfacet
   facet normal 0.000000e+00 5.547002e-01 8.320503e-01
      outer loop
         vertex 8.040000e-01 6.030000e-01 -1.490115e-09
         vertex 4.000008e-03 6.030000e-01 -1.490115e-09
         vertex 5.540000e-01 3.030000e-01 2.000000e-01
      endloop
   endfacet
   facet normal 0.000000e+00 5.547002e-01 8.320503e-01
      outer loop
         vertex 5.540000e-01 3.030000e-01 2.000000e-01
         vertex 4.000008e-03 6.030000e-01 -1.490115e-09
         vertex 2.540000e-01 3.030000e-01 2.000000e-01
      endloop
   endfacet
   facet normal 0.000000e+00 -5.547002e-01 8.320503e-01
      outer loop
         vertex 5.540000e-01 3.030000e-01 2.000000e-01
         vertex 2.540000e-01 3.030000e-01 2.000000e-01
         vertex 8.040000e-01 3.000000e-03 -1.490115e-09
      endloop
   endfacet
   facet normal 0.000000e+00 -5.547002e-01 8.320503e-01
      outer loop
         vertex 8.040000e-01 3.000000e-03 -1.490115e-09
         vertex 2.540000e-01 3.030000e-01 2.000000e-01
         vertex 4.000008e-03 3.000000e-03 -1.490115e-09
      endloop
   endfacet
   facet normal -6.246951e-01 0.000000e+00 7.808688e-01
      outer loop
         vertex 4.000008e-03 3.000000e-03 -1.490115e-09
         vertex 2.540000e-01 3.030000e-01 2.000000e-01
         vertex 4.000008e-03 6.030000e-01 -1.490115e-09
      endloop
   endfacet
   facet normal 6.246951e-01 -0.000000e+00 7.808688e-01
      outer loop
         vertex 8.040000e-01 3.000000e-03 -1.490115e-09
         vertex 8.040000e-01 6.030000e-01 -1.490115e-09
         vertex 5.540000e-01 3.030000e-01 2.000000e-01
      endloop
   endfacet
endsolid